<?xml version="1.0" encoding="UTF-8"?>
<svg width="700pt" height="700pt" version="1.1" viewBox="0 0 700 700" xmlns="http://www.w3.org/2000/svg" xmlns:xlink="http://www.w3.org/1999/xlink">
 <defs>
  <symbol id="u" overflow="visible">
   <path d="m8.1875-0.48438c-0.42969 0.21875-0.87109 0.38281-1.3281 0.48438-0.44922 0.11328-0.92188 0.17188-1.4219 0.17188-1.4922 0-2.668-0.41016-3.5312-1.2344-0.86719-0.83203-1.2969-1.957-1.2969-3.375 0-1.4258 0.42969-2.5508 1.2969-3.375 0.86328-0.83203 2.0391-1.25 3.5312-1.25 0.5 0 0.97266 0.058594 1.4219 0.17188 0.45703 0.10547 0.89844 0.26562 1.3281 0.48438v1.8438c-0.42969-0.28906-0.85156-0.50391-1.2656-0.64062-0.40625-0.13281-0.83984-0.20312-1.2969-0.20312-0.82422 0-1.4688 0.26562-1.9375 0.79688-0.46875 0.52344-0.70312 1.2461-0.70312 2.1719 0 0.91797 0.23438 1.6406 0.70312 2.1719 0.46875 0.52344 1.1133 0.78125 1.9375 0.78125 0.45703 0 0.89062-0.066406 1.2969-0.20312 0.41406-0.13281 0.83594-0.34766 1.2656-0.64062z"/>
  </symbol>
  <symbol id="e" overflow="visible">
   <path d="m5.9844-4.8594c-0.1875-0.09375-0.375-0.16016-0.5625-0.20312-0.17969-0.039062-0.35938-0.0625-0.54688-0.0625-0.55469 0-0.98047 0.17969-1.2812 0.53125-0.29297 0.35547-0.4375 0.85938-0.4375 1.5156v3.0781h-2.125v-6.6875h2.125v1.1094c0.28125-0.4375 0.59766-0.75391 0.95312-0.95312 0.35156-0.20703 0.78125-0.3125 1.2812-0.3125 0.070313 0 0.14844 0.007812 0.23438 0.015625 0.082031 0 0.20312 0.011719 0.35938 0.03125z"/>
  </symbol>
  <symbol id="b" overflow="visible">
   <path d="m7.7031-3.3594v0.60938h-5c0.050781 0.5 0.23438 0.875 0.54688 1.125s0.74219 0.375 1.2969 0.375c0.44531 0 0.90625-0.0625 1.375-0.1875 0.47656-0.13281 0.96094-0.33594 1.4531-0.60938v1.6406c-0.5 0.1875-1.0078 0.32812-1.5156 0.42188-0.5 0.10156-1.0078 0.15625-1.5156 0.15625-1.2109 0-2.1484-0.30469-2.8125-0.92188-0.66797-0.61328-1-1.4727-1-2.5781 0-1.0938 0.32812-1.9531 0.98438-2.5781s1.5625-0.9375 2.7188-0.9375c1.0508 0 1.8906 0.32031 2.5156 0.95312 0.63281 0.625 0.95312 1.4688 0.95312 2.5312zm-2.2031-0.70312c0-0.40625-0.12109-0.73438-0.35938-0.98438-0.23047-0.25-0.53906-0.375-0.92188-0.375-0.41797 0-0.75781 0.12109-1.0156 0.35938-0.25 0.23047-0.41406 0.5625-0.48438 1z"/>
  </symbol>
  <symbol id="d" overflow="visible">
   <path d="m4.0156-3c-0.4375 0-0.77344 0.078125-1 0.23438-0.23047 0.14844-0.34375 0.36719-0.34375 0.65625 0 0.27344 0.085937 0.48438 0.26562 0.64062 0.1875 0.14844 0.44141 0.21875 0.76562 0.21875 0.40625 0 0.74219-0.14062 1.0156-0.42188 0.26953-0.28906 0.40625-0.65625 0.40625-1.0938v-0.23438zm3.2656-0.8125v3.8125h-2.1562v-0.98438c-0.28125 0.40625-0.60547 0.70312-0.96875 0.89062-0.35547 0.17578-0.78906 0.26562-1.2969 0.26562-0.69922 0-1.2617-0.19531-1.6875-0.59375-0.42969-0.40625-0.64062-0.92969-0.64062-1.5781 0-0.78906 0.26562-1.3672 0.79688-1.7344 0.53906-0.36328 1.3906-0.54688 2.5469-0.54688h1.25v-0.15625c0-0.34375-0.13672-0.59375-0.40625-0.75-0.26172-0.15625-0.67188-0.23438-1.2344-0.23438-0.46094 0-0.88672 0.046875-1.2812 0.14062-0.39844 0.085938-0.76172 0.21875-1.0938 0.40625v-1.625c0.45703-0.11328 0.91406-0.19531 1.375-0.25 0.46875-0.0625 0.92969-0.09375 1.3906-0.09375 1.207 0 2.0781 0.24219 2.6094 0.71875 0.53125 0.46875 0.79688 1.2422 0.79688 2.3125z"/>
  </symbol>
  <symbol id="c" overflow="visible">
   <path d="m3.3594-8.5781v1.8906h2.2031v1.5312h-2.2031v2.8281c0 0.3125 0.0625 0.52734 0.1875 0.64062 0.125 0.10547 0.36719 0.15625 0.73438 0.15625h1.0938v1.5312h-1.8281c-0.84375 0-1.4453-0.17578-1.7969-0.53125-0.35547-0.35156-0.53125-0.95312-0.53125-1.7969v-2.8281h-1.0625v-1.5312h1.0625v-1.8906z"/>
  </symbol>
  <symbol id="k" overflow="visible">
   <path d="m5.5781-5.7031v-3.5781h2.1406v9.2812h-2.1406v-0.96875c-0.30469 0.39844-0.63281 0.6875-0.98438 0.875-0.35547 0.17578-0.76172 0.26562-1.2188 0.26562-0.82422 0-1.5-0.32812-2.0312-0.98438s-0.79688-1.4922-0.79688-2.5156c0-1.0312 0.26562-1.875 0.79688-2.5312s1.207-0.98438 2.0312-0.98438c0.45703 0 0.86328 0.09375 1.2188 0.28125 0.35156 0.1875 0.67969 0.47656 0.98438 0.85938zm-1.4062 4.3281c0.44531 0 0.78906-0.16406 1.0312-0.5 0.25-0.33203 0.375-0.81641 0.375-1.4531 0-0.64453-0.125-1.1328-0.375-1.4688-0.24219-0.33203-0.58594-0.5-1.0312-0.5-0.46094 0-0.80859 0.16797-1.0469 0.5-0.24219 0.33594-0.35938 0.82422-0.35938 1.4688 0 0.63672 0.11719 1.1211 0.35938 1.4531 0.23828 0.33594 0.58594 0.5 1.0469 0.5z"/>
  </symbol>
  <symbol id="j" overflow="visible">
   <path d="m4.5781-1.375c0.45703 0 0.80469-0.16406 1.0469-0.5 0.23828-0.33203 0.35938-0.81641 0.35938-1.4531 0-0.64453-0.12109-1.1328-0.35938-1.4688-0.24219-0.33203-0.58984-0.5-1.0469-0.5-0.46094 0-0.8125 0.17188-1.0625 0.51562-0.24219 0.33594-0.35938 0.82031-0.35938 1.4531 0 0.625 0.11719 1.1094 0.35938 1.4531 0.25 0.33594 0.60156 0.5 1.0625 0.5zm-1.4219-4.3281c0.30078-0.38281 0.62891-0.67188 0.98438-0.85938 0.35156-0.1875 0.76562-0.28125 1.2344-0.28125 0.82031 0 1.5 0.32812 2.0312 0.98438s0.79688 1.5 0.79688 2.5312c0 1.0234-0.26562 1.8594-0.79688 2.5156s-1.2109 0.98438-2.0312 0.98438c-0.46875 0-0.88281-0.089844-1.2344-0.26562-0.35547-0.1875-0.68359-0.47656-0.98438-0.875v0.96875h-2.125v-9.2812h2.125z"/>
  </symbol>
  <symbol id="g" overflow="visible">
   <path d="m0.15625-6.6875h2.125l1.7969 4.5469 1.5312-4.5469h2.1406l-2.8125 7.3125c-0.28125 0.75-0.60938 1.2695-0.98438 1.5625-0.375 0.30078-0.875 0.45312-1.5 0.45312h-1.2344v-1.4062h0.67188c0.36328 0 0.625-0.058594 0.78125-0.17188 0.16406-0.11719 0.29688-0.32422 0.39062-0.625l0.0625-0.1875z"/>
  </symbol>
  <symbol id="i" overflow="visible">
   <path d="m9.125-0.65625c-0.57422 0.27344-1.168 0.48047-1.7812 0.625-0.61719 0.13281-1.25 0.20312-1.9062 0.20312-1.4922 0-2.668-0.41016-3.5312-1.2344-0.86719-0.83203-1.2969-1.957-1.2969-3.375 0-1.4375 0.4375-2.5664 1.3125-3.3906 0.88281-0.82031 2.0977-1.2344 3.6406-1.2344 0.59375 0 1.1602 0.058594 1.7031 0.17188 0.53906 0.10547 1.0508 0.26562 1.5312 0.48438v1.8438c-0.5-0.28125-0.99609-0.48828-1.4844-0.625-0.49219-0.14453-0.98047-0.21875-1.4688-0.21875-0.91797 0-1.625 0.25781-2.125 0.76562-0.49219 0.51172-0.73438 1.2461-0.73438 2.2031 0 0.9375 0.23828 1.668 0.71875 2.1875 0.47656 0.51172 1.1562 0.76562 2.0312 0.76562 0.23828 0 0.45703-0.015625 0.65625-0.046875 0.20703-0.03125 0.39453-0.078125 0.5625-0.14062v-1.7344h-1.4062v-1.5469h3.5781z"/>
  </symbol>
  <symbol id="f" overflow="visible">
   <path d="m7.75-4.0625v4.0625h-2.1562v-3.1094c0-0.58203-0.015625-0.98438-0.046875-1.2031-0.023437-0.21875-0.0625-0.37891-0.125-0.48438-0.085937-0.13281-0.19922-0.23828-0.34375-0.3125-0.13672-0.082031-0.29688-0.125-0.48438-0.125-0.44922 0-0.80469 0.17188-1.0625 0.51562-0.25 0.34375-0.375 0.82422-0.375 1.4375v3.2812h-2.125v-6.6875h2.125v0.98438c0.32031-0.38281 0.66406-0.67188 1.0312-0.85938 0.36328-0.1875 0.76562-0.28125 1.2031-0.28125 0.76953 0 1.3516 0.24219 1.75 0.71875 0.40625 0.46875 0.60938 1.1562 0.60938 2.0625z"/>
  </symbol>
  <symbol id="t" overflow="visible">
   <path d="m1.125-8.9062h2.2969v3.25l3.3125-3.25h2.6562l-4.2812 4.2188 4.7344 4.6875h-2.875l-3.5469-3.5156v3.5156h-2.2969z"/>
  </symbol>
  <symbol id="h" overflow="visible">
   <path d="m7.75-4.0625v4.0625h-2.1562v-3.1094c0-0.58203-0.015625-0.98438-0.046875-1.2031-0.023437-0.21875-0.0625-0.37891-0.125-0.48438-0.085937-0.13281-0.19922-0.23828-0.34375-0.3125-0.13672-0.082031-0.29688-0.125-0.48438-0.125-0.44922 0-0.80469 0.17188-1.0625 0.51562-0.25 0.34375-0.375 0.82422-0.375 1.4375v3.2812h-2.125v-9.2812h2.125v3.5781c0.32031-0.38281 0.66406-0.67188 1.0312-0.85938 0.36328-0.1875 0.76562-0.28125 1.2031-0.28125 0.76953 0 1.3516 0.24219 1.75 0.71875 0.40625 0.46875 0.60938 1.1562 0.60938 2.0625z"/>
  </symbol>
  <symbol id="a" overflow="visible">
   <path d="m4.2031-5.3125c-0.46875 0-0.82812 0.17188-1.0781 0.51562-0.25 0.33594-0.375 0.82422-0.375 1.4688 0 0.63672 0.125 1.125 0.375 1.4688 0.25 0.33594 0.60938 0.5 1.0781 0.5s0.82031-0.16406 1.0625-0.5c0.25-0.34375 0.375-0.83203 0.375-1.4688 0-0.64453-0.125-1.1328-0.375-1.4688-0.24219-0.34375-0.59375-0.51562-1.0625-0.51562zm0-1.5312c1.1562 0 2.0547 0.3125 2.7031 0.9375 0.64453 0.61719 0.96875 1.4766 0.96875 2.5781 0 1.0938-0.32422 1.9531-0.96875 2.5781-0.64844 0.61719-1.5469 0.92188-2.7031 0.92188s-2.0586-0.30469-2.7031-0.92188c-0.64844-0.625-0.96875-1.4844-0.96875-2.5781 0-1.1016 0.32031-1.9609 0.96875-2.5781 0.64453-0.625 1.5469-0.9375 2.7031-0.9375z"/>
  </symbol>
  <symbol id="s" overflow="visible">
   <path d="m1.125-8.9062h2.2969v7.1719h4.0312v1.7344h-6.3281z"/>
  </symbol>
  <symbol id="r" overflow="visible">
   <path d="m5.4219-9.2812v1.4062h-1.1875c-0.30469 0-0.51172 0.058594-0.625 0.17188-0.11719 0.10547-0.17188 0.29297-0.17188 0.5625v0.45312h1.8125v1.5312h-1.8125v5.1562h-2.1406v-5.1562h-1.0625v-1.5312h1.0625v-0.45312c0-0.72656 0.20312-1.2656 0.60938-1.6094 0.40625-0.35156 1.0312-0.53125 1.875-0.53125z"/>
  </symbol>
  <symbol id="q" overflow="visible">
   <path d="m7.2188-5.5781c0.26953-0.40625 0.58594-0.71875 0.95312-0.9375 0.375-0.21875 0.78516-0.32812 1.2344-0.32812 0.76953 0 1.3516 0.24219 1.75 0.71875 0.40625 0.46875 0.60938 1.1562 0.60938 2.0625v4.0625h-2.1406v-3.4844-0.15625-0.25c0-0.46875-0.070312-0.80469-0.20312-1.0156-0.13672-0.21875-0.35938-0.32812-0.67188-0.32812-0.40625 0-0.72656 0.16797-0.95312 0.5-0.21875 0.33594-0.32812 0.82031-0.32812 1.4531v3.2812h-2.1562v-3.4844c0-0.73828-0.0625-1.2109-0.1875-1.4219-0.125-0.21875-0.35547-0.32812-0.6875-0.32812-0.40625 0-0.72656 0.17188-0.95312 0.51562-0.21875 0.33594-0.32812 0.8125-0.32812 1.4375v3.2812h-2.1406v-6.6875h2.1406v0.98438c0.26953-0.375 0.57031-0.65625 0.90625-0.84375 0.34375-0.19531 0.71875-0.29688 1.125-0.29688 0.45703 0 0.86328 0.11719 1.2188 0.34375 0.35156 0.21875 0.625 0.52734 0.8125 0.92188z"/>
  </symbol>
  <symbol id="p" overflow="visible">
   <path d="m1.125-8.9062h2.5625l3.2344 6.1094v-6.1094h2.1875v8.9062h-2.5781l-3.2344-6.1094v6.1094h-2.1719z"/>
  </symbol>
  <symbol id="o" overflow="visible">
   <path d="m0.95312-2.5938v-4.0938h2.1562v0.67188c0 0.36719-0.007813 0.82422-0.015625 1.375v1.0781c0 0.54297 0.007812 0.93359 0.03125 1.1719 0.03125 0.23047 0.082031 0.40234 0.15625 0.51562 0.082031 0.13672 0.19141 0.24609 0.32812 0.32812 0.14453 0.074219 0.3125 0.10938 0.5 0.10938 0.4375 0 0.78125-0.17188 1.0312-0.51562 0.25781-0.34375 0.39062-0.82031 0.39062-1.4375v-3.2969h2.1406v6.6875h-2.1406v-0.96875c-0.32422 0.39844-0.66797 0.6875-1.0312 0.875-0.35547 0.17578-0.74609 0.26562-1.1719 0.26562-0.77344 0-1.3594-0.23438-1.7656-0.70312-0.40625-0.47656-0.60938-1.1641-0.60938-2.0625z"/>
  </symbol>
  <symbol id="n" overflow="visible">
   <path d="m1.125-8.9062h3.8125c1.1328 0 2.0039 0.25781 2.6094 0.76562 0.60156 0.5 0.90625 1.2148 0.90625 2.1406 0 0.9375-0.30469 1.6562-0.90625 2.1562-0.60547 0.5-1.4766 0.75-2.6094 0.75h-1.5156v3.0938h-2.2969zm2.2969 1.6562v2.5h1.2656c0.44531 0 0.78906-0.10938 1.0312-0.32812 0.23828-0.21875 0.35938-0.52344 0.35938-0.92188 0-0.39453-0.12109-0.70312-0.35938-0.92188-0.24219-0.21875-0.58594-0.32812-1.0312-0.32812z"/>
  </symbol>
  <symbol id="m" overflow="visible">
   <path d="m1.0312-6.6875h2.125v6.5625c0 0.89453-0.21484 1.5781-0.64062 2.0469-0.42969 0.47656-1.0469 0.71875-1.8594 0.71875h-1.0625v-1.4062h0.375c0.40625 0 0.67969-0.09375 0.82812-0.28125 0.15625-0.17969 0.23438-0.53906 0.23438-1.0781zm0-2.5938h2.125v1.7344h-2.125z"/>
  </symbol>
  <symbol id="l" overflow="visible">
   <path d="m6.4219-6.4688v1.7344c-0.29297-0.19531-0.58594-0.34375-0.875-0.4375-0.29297-0.09375-0.59375-0.14062-0.90625-0.14062-0.59375 0-1.0586 0.17969-1.3906 0.53125-0.33594 0.34375-0.5 0.82812-0.5 1.4531s0.16406 1.1094 0.5 1.4531c0.33203 0.34375 0.79688 0.51562 1.3906 0.51562 0.33203 0 0.64844-0.046875 0.95312-0.14062 0.30078-0.10156 0.57812-0.25 0.82812-0.4375v1.7344c-0.33594 0.125-0.67188 0.21875-1.0156 0.28125s-0.6875 0.09375-1.0312 0.09375c-1.2109 0-2.1523-0.30469-2.8281-0.92188-0.67969-0.625-1.0156-1.4844-1.0156-2.5781 0-1.1016 0.33594-1.9609 1.0156-2.5781 0.67578-0.625 1.6172-0.9375 2.8281-0.9375 0.34375 0 0.6875 0.03125 1.0312 0.09375s0.67969 0.15625 1.0156 0.28125z"/>
  </symbol>
 </defs>
 <g>
  <path d="m178.26 115.86c-11.031-2.4531-22.055-4.9062-33.086-7.3594-3.5391-1.8945-7.582-2.9766-11.875-2.9766-13.926 0-25.211 11.289-25.211 25.215 0 7.4766 3.2695 14.172 8.4414 18.789 5.3242 5.7539 11.891 11.078 19.234 16.785 0.039062 0.03125 0.070312 0.0625 0.10938 0.09375l-0.003906-0.007812c16.273 12.527 35.191 25.051 35.387 25.188 3.2852 2.1836 7.0508 3.2578 10.801 3.2578 4.5508 0 9.082-1.5859 12.727-4.7031l76.953-65.879c8.2031-7.0234 9.1602-19.371 2.1328-27.578-7.0234-8.207-19.371-9.1641-27.574-2.1406l-65.574 56.141c-6.2578-4.3633-14.008-9.8984-20.883-15.191-0.03125-0.023438-0.058594-0.054688-0.089844-0.078125-0.50781-0.39062-1-0.77344-1.5-1.1641 0.16016-1.1484 0.26953-2.3086 0.26953-3.5039 0-0.17969-0.023437-0.35547-0.027344-0.53125 2.625 0.80859 4.2266 1.3164 4.2266 1.3164l0.011718 0.015625c0.046876 0.035157 12.512 9.3047 17.691 12.957l62.695-53.676c4.4297-3.7891 10.07-5.8711 15.887-5.8711 7.1562 0 13.93 3.1133 18.586 8.5469 0.92969 1.0859 1.7227 2.2383 2.4297 3.4297l29.688-5.6445 1.4688 7.7109 0.30078 1.5859 26.703-5.0742-31.941 42.812-37.27-5.2617-71.012 60.785c-4.4258 3.7891-10.074 5.875-15.91 5.875-4.8203 0-9.4883-1.4023-13.504-4.0664l-0.24609-0.16797c-4.6914-3.1289-21.102-14.203-35.418-25.223-0.007812-0.003906-0.015625-0.011719-0.019531-0.015625-7.4453-5.7773-14.59-11.492-20.41-17.898l-0.035156-0.039063-0.13281-0.15234c-1.8594-2.1445-3.9688-4.5781-6.1172-8.832-0.625-1.3438-1.4414-3.1406-2.0547-5.5156-9.7969 55.633-2.2148 92.824 10.566 146.23 0.19922 1.2734 0.44922 2.5508 0.81641 3.8203h-0.003906c0.5 1.7734 8.1523 30.531 8.1367 73.578-0.003906 41.816-7.1328 96.863-34.336 154.83-7.1719 15.281-0.58984 33.48 14.691 40.648 4.1953 1.9688 8.6094 2.9023 12.957 2.9023 11.488 0 22.488-6.5039 27.691-17.59 31.809-67.82 40.129-132.11 40.121-180.79-0.003906-12.418-0.54688-23.816-1.375-34.055 0.25 0.11328 0.48828 0.25 0.74219 0.35547 1.3164 0.625 13.355 6.6758 24.984 22.051 11.984 16.035 24.676 42.082 24.812 87.844 0.003906 22.855-3.332 50.629-12.055 84.074-4.2617 16.328 5.5234 33.023 21.859 37.289 2.5859 0.67188 5.1797 0.99609 7.7305 0.99609 13.574 0 25.969-9.1133 29.551-22.863 9.8398-37.742 14.031-70.691 14.035-99.496 0.17969-61.43-19.715-104.04-41.227-129.82-9.1836-11.082-18.391-19.113-26.188-24.801-15.715-51.934-5.2383-79.938 15.426-114.11l69.199 9.7695c0.92578 0.12891 1.8438 0.19141 2.7578 0.19141 6.125 0.003906 11.926-2.8672 15.656-7.8711l50.125-67.238c3.7656-5.0547 4.707-11.328 3.1289-16.965l11.086-2.1094-1.5898-8.3633 6.8594-1.3047 31.461-5.9805-3.5312-18.59 145.24-27.605-3.2617-17.16-298.48 56.742c0.41016-3.0156 0.55078-6.0977 0.44922-9.2109-4.9336 0.57812-10.184 0.92578-15.629 1.0039-28.496 0.38672-51.75-6.8672-52.715-16.285 5.0898 7.7148 27.672 10.48 53.719 6.0703 19.656-3.3281 36.133-9.875 44.012-16.738 3.5977-3.1328 5.4023-6.3281 4.8906-9.3203-1.6172-9.5391-26.133-13.344-54.758-8.4922-0.97656 0.16797-1.9297 0.35937-2.8945 0.53906-11.441-8.0352-25.918-11.738-40.789-9.2188-29.953 5.0781-50.121 33.477-45.051 63.43 2.207 13.008 8.8125 24.164 18.027 32.215 5.5391 4.8398 12.023 8.5469 19.066 10.863z"/>
  <path d="m505.62 423.72c-49.102 15.305-62.004-24.938-104.85-2.0312-17.598-5.168-38.574-16.285-54.473-40.012-3.2109-4.7695-9.6797-6.0195-14.434-2.8086-4.7734 3.207-6.043 9.668-2.8125 14.441 15.121 22.336 33.793 35.422 51.324 43.09-0.19922 0.42969-0.42188 0.94141-0.63672 1.4297-4.4883 6.7617-8.0078 15.668-10.301 27.539-0.32031 1.7344-14.59 92.793 7.8281 92.793 22.41 0 28.566-68.887 41.074-77.703 1.7695 0.15625 51.512 34.988 79.906 30.609 6.0039-0.92969 13.926-4.3711 20.93-8.2461l22.574 49.977c2.0234 4.4805 6.4492 7.1914 11.141 7.1914 1.2578 0 2.5312-0.19531 3.7812-0.60547 5.9297-1.9258 9.4531-8.0039 8.1914-14.109l-17.18-82.746c-0.38281-1.8633-1.2109-3.5078-2.293-4.9219 0.03125-0.17969 0.066407-0.375 0.097657-0.55078-6.0703-4.5195-11.297-8.9883-15.82-13.238-7.457-4.7773-15.664-11.285-24.047-20.098z"/>
  <path d="m560.48 369.83c-0.53516-0.36328-8.9727-11.066 2.7266-24.199 4.0977-4.5859-7.2578-6.3242-16.258-0.42969-10.711 7.0117-11.527 15.508-9.4297 25.531-16.461 8.1328-25.156 28.75-27.414 43.43 19.41 21.477 37.668 29.113 46.867 31.77 5.3516-7.6914 15.23-20.078 20.094-21.574 10.582-3.2695 27.109 0.74609 32.527-7.5938 3.7891-5.8281 4.7188-8.0664 3.5625-18.172-1.1562-9.9844-23.758-12.207-31.969-14.016-11.66-2.5703-20.055-14.309-20.707-14.746zm10.148 22.297c0.60938 4.3516-2.4141 8.3672-6.7695 8.9766-4.3398 0.60547-8.3633-2.4141-8.9688-6.7695-0.60938-4.3438 2.4141-8.3633 6.7617-8.9727s8.3711 2.4219 8.9766 6.7656z"/>
  <use x="86.386719" y="596.675781" xlink:href="#u"/>
  <use x="95.355469" y="596.675781" xlink:href="#e"/>
  <use x="101.386719" y="596.675781" xlink:href="#b"/>
  <use x="109.675781" y="596.675781" xlink:href="#d"/>
  <use x="117.925781" y="596.675781" xlink:href="#c"/>
  <use x="123.769531" y="596.675781" xlink:href="#b"/>
  <use x="132.0625" y="596.675781" xlink:href="#k"/>
  <use x="145.070312" y="596.675781" xlink:href="#j"/>
  <use x="153.820312" y="596.675781" xlink:href="#g"/>
  <use x="166.042969" y="596.675781" xlink:href="#i"/>
  <use x="176.078125" y="596.675781" xlink:href="#d"/>
  <use x="184.328125" y="596.675781" xlink:href="#f"/>
  <use x="197.285156" y="596.675781" xlink:href="#t"/>
  <use x="206.761719" y="596.675781" xlink:href="#h"/>
  <use x="215.464844" y="596.675781" xlink:href="#a"/>
  <use x="223.863281" y="596.675781" xlink:href="#a"/>
  <use x="232.261719" y="596.675781" xlink:href="#f"/>
  <use x="245.21875" y="596.675781" xlink:href="#s"/>
  <use x="253.007812" y="596.675781" xlink:href="#d"/>
  <use x="261.257812" y="596.675781" xlink:href="#g"/>
  <use x="86.386719" y="608.898438" xlink:href="#r"/>
  <use x="91.703125" y="608.898438" xlink:href="#e"/>
  <use x="97.734375" y="608.898438" xlink:href="#a"/>
  <use x="106.132812" y="608.898438" xlink:href="#q"/>
  <use x="123.125" y="608.898438" xlink:href="#c"/>
  <use x="128.96875" y="608.898438" xlink:href="#h"/>
  <use x="137.671875" y="608.898438" xlink:href="#b"/>
  <use x="150.21875" y="608.898438" xlink:href="#p"/>
  <use x="160.449219" y="608.898438" xlink:href="#a"/>
  <use x="168.851562" y="608.898438" xlink:href="#o"/>
  <use x="177.554688" y="608.898438" xlink:href="#f"/>
  <use x="190.511719" y="608.898438" xlink:href="#n"/>
  <use x="199.472656" y="608.898438" xlink:href="#e"/>
  <use x="205.5" y="608.898438" xlink:href="#a"/>
  <use x="213.898438" y="608.898438" xlink:href="#m"/>
  <use x="218.089844" y="608.898438" xlink:href="#b"/>
  <use x="226.382812" y="608.898438" xlink:href="#l"/>
  <use x="233.628906" y="608.898438" xlink:href="#c"/>
 </g>
</svg>
