<?xml version="1.0" encoding="UTF-8"?>
<svg width="700pt" height="700pt" version="1.1" viewBox="0 0 700 700" xmlns="http://www.w3.org/2000/svg" xmlns:xlink="http://www.w3.org/1999/xlink">
 <defs>
  <symbol id="w" overflow="visible">
   <path d="m26.047-1.5625c-1.3359 0.69922-2.7305 1.2266-4.1875 1.5781-1.4609 0.35156-2.9805 0.53125-4.5625 0.53125-4.7188 0-8.4609-1.3164-11.219-3.9531-2.7617-2.6445-4.1406-6.2227-4.1406-10.734 0-4.5391 1.3789-8.1289 4.1406-10.766 2.7578-2.6328 6.5-3.9531 11.219-3.9531 1.582 0 3.1016 0.17969 4.5625 0.53125 1.457 0.35547 2.8516 0.88281 4.1875 1.5781v5.8594c-1.3555-0.92578-2.6875-1.6016-4-2.0312-1.3125-0.42578-2.6992-0.64062-4.1562-0.64062-2.6172 0-4.668 0.83984-6.1562 2.5156-1.4922 1.668-2.2344 3.9688-2.2344 6.9062 0 2.918 0.74219 5.2148 2.2344 6.8906 1.4883 1.668 3.5391 2.5 6.1562 2.5 1.457 0 2.8438-0.21094 4.1562-0.64062 1.3125-0.42578 2.6445-1.1016 4-2.0312z"/>
  </symbol>
  <symbol id="d" overflow="visible">
   <path d="m19.062-15.469c-0.59375-0.28125-1.1875-0.48828-1.7812-0.625-0.58594-0.13281-1.1719-0.20312-1.7656-0.20312-1.75 0-3.1016 0.5625-4.0469 1.6875-0.9375 1.1172-1.4062 2.7188-1.4062 4.8125v9.7969h-6.7969v-21.266h6.7969v3.4844c0.875-1.3828 1.8789-2.3945 3.0156-3.0312 1.1328-0.64453 2.4883-0.96875 4.0625-0.96875 0.22656 0 0.47266 0.011719 0.73438 0.03125 0.26953 0.023438 0.66016 0.0625 1.1719 0.125z"/>
  </symbol>
  <symbol id="a" overflow="visible">
   <path d="m24.5-10.688v1.9375h-15.891c0.15625 1.5938 0.72656 2.793 1.7188 3.5938 0.98828 0.79297 2.3672 1.1875 4.1406 1.1875 1.4258 0 2.8906-0.20703 4.3906-0.625 1.5-0.42578 3.0391-1.0703 4.625-1.9375v5.2344c-1.6055 0.61719-3.2148 1.0742-4.8281 1.375-1.6055 0.3125-3.2109 0.46875-4.8125 0.46875-3.8438 0-6.8359-0.97266-8.9688-2.9219-2.1367-1.957-3.2031-4.7031-3.2031-8.2344 0-3.4688 1.0469-6.1953 3.1406-8.1875 2.0938-1.9883 4.9766-2.9844 8.6562-2.9844 3.3438 0 6.0156 1.0078 8.0156 3.0156 2.0078 2.0117 3.0156 4.7031 3.0156 8.0781zm-6.9844-2.2656c0-1.2891-0.38281-2.332-1.1406-3.125-0.75-0.78906-1.7344-1.1875-2.9531-1.1875-1.3125 0-2.3828 0.37109-3.2031 1.1094-0.82422 0.74219-1.3398 1.8086-1.5469 3.2031z"/>
  </symbol>
  <symbol id="c" overflow="visible">
   <path d="m12.797-9.5781c-1.418 0-2.4844 0.24609-3.2031 0.73438-0.71094 0.48047-1.0625 1.1875-1.0625 2.125 0 0.85547 0.28516 1.5273 0.85938 2.0156 0.57031 0.49219 1.375 0.73438 2.4062 0.73438 1.2695 0 2.3438-0.45703 3.2188-1.375 0.875-0.91406 1.3125-2.0664 1.3125-3.4531v-0.78125zm10.391-2.5625v12.141h-6.8594v-3.1562c-0.90625 1.293-1.9336 2.2344-3.0781 2.8281-1.1367 0.58203-2.5234 0.875-4.1562 0.875-2.1992 0-3.9844-0.64062-5.3594-1.9219s-2.0625-2.9453-2.0625-5c0-2.5 0.85156-4.3281 2.5625-5.4844 1.7188-1.1641 4.4141-1.75 8.0938-1.75h4v-0.53125c0-1.082-0.42969-1.875-1.2812-2.375-0.84375-0.5-2.1641-0.75-3.9531-0.75-1.4609 0-2.8203 0.14844-4.0781 0.4375-1.25 0.29297-2.4141 0.73047-3.4844 1.3125v-5.1875c1.457-0.35156 2.9219-0.61719 4.3906-0.79688 1.4688-0.1875 2.9375-0.28125 4.4062-0.28125 3.832 0 6.5977 0.75781 8.2969 2.2656 1.707 1.5117 2.5625 3.9688 2.5625 7.375z"/>
  </symbol>
  <symbol id="b" overflow="visible">
   <path d="m10.688-27.312v6.0469h7.0156v4.8594h-7.0156v9.0156c0 0.99219 0.19531 1.6641 0.59375 2.0156 0.39453 0.34375 1.1719 0.51562 2.3281 0.51562h3.5v4.8594h-5.8281c-2.6875 0-4.5938-0.55469-5.7188-1.6719-1.1172-1.125-1.6719-3.0312-1.6719-5.7188v-9.0156h-3.375v-4.8594h3.375v-6.0469z"/>
  </symbol>
  <symbol id="k" overflow="visible">
   <path d="m17.734-18.156v-11.391h6.8438v29.547h-6.8438v-3.0781c-0.9375 1.25-1.9688 2.168-3.0938 2.75s-2.4297 0.875-3.9062 0.875c-2.625 0-4.7812-1.0391-6.4688-3.125-1.6797-2.082-2.5156-4.7578-2.5156-8.0312 0-3.2812 0.83594-5.9609 2.5156-8.0469 1.6875-2.082 3.8438-3.125 6.4688-3.125 1.4688 0 2.7656 0.29688 3.8906 0.89062 1.1328 0.58594 2.1719 1.4961 3.1094 2.7344zm-4.4844 13.766c1.457 0 2.5664-0.53125 3.3281-1.5938 0.76953-1.0625 1.1562-2.6016 1.1562-4.625 0-2.0312-0.38672-3.5781-1.1562-4.6406-0.76172-1.0625-1.8711-1.5938-3.3281-1.5938-1.4375 0-2.543 0.53125-3.3125 1.5938-0.76172 1.0625-1.1406 2.6094-1.1406 4.6406 0 2.0234 0.37891 3.5625 1.1406 4.625 0.76953 1.0625 1.875 1.5938 3.3125 1.5938z"/>
  </symbol>
  <symbol id="j" overflow="visible">
   <path d="m14.578-4.3906c1.457 0 2.5664-0.53125 3.3281-1.5938 0.76953-1.0625 1.1562-2.6016 1.1562-4.625 0-2.0312-0.38672-3.5781-1.1562-4.6406-0.76172-1.0625-1.8711-1.5938-3.3281-1.5938-1.4492 0-2.5625 0.53906-3.3438 1.6094-0.78125 1.0625-1.1719 2.6055-1.1719 4.625 0 2.0117 0.39062 3.5547 1.1719 4.625 0.78125 1.0625 1.8945 1.5938 3.3438 1.5938zm-4.5156-13.766c0.9375-1.2383 1.9727-2.1484 3.1094-2.7344 1.1445-0.59375 2.457-0.89062 3.9375-0.89062 2.625 0 4.7734 1.043 6.4531 3.125 1.6875 2.0859 2.5312 4.7656 2.5312 8.0469 0 3.2734-0.84375 5.9492-2.5312 8.0312-1.6797 2.0859-3.8281 3.125-6.4531 3.125-1.4805 0-2.793-0.29297-3.9375-0.875-1.1367-0.59375-2.1719-1.5078-3.1094-2.75v3.0781h-6.7969v-29.547h6.7969z"/>
  </symbol>
  <symbol id="i" overflow="visible">
   <path d="m0.46875-21.266h6.7969l5.7188 14.422 4.8594-14.422h6.8125l-8.9531 23.281c-0.89844 2.3633-1.9453 4.0156-3.1406 4.9531-1.1992 0.94531-2.7773 1.4219-4.7344 1.4219h-3.9375v-4.4531h2.125c1.1562 0 1.9922-0.1875 2.5156-0.5625 0.53125-0.36719 0.94141-1.0234 1.2344-1.9688l0.1875-0.59375z"/>
  </symbol>
  <symbol id="h" overflow="visible">
   <path d="m20.781-5.1719h-11.438l-1.8125 5.1719h-7.3438l10.5-28.344h8.7188l10.5 28.344h-7.3438zm-9.6094-5.25h7.7656l-3.875-11.281z"/>
  </symbol>
  <symbol id="v" overflow="visible">
   <path d="m2.2188-21.266h18.562v4.75l-11.203 11.656h11.203v4.8594h-19.031v-4.75l11.203-11.656h-10.734z"/>
  </symbol>
  <symbol id="g" overflow="visible">
   <path d="m22.984-17.734c0.85156-1.3203 1.8672-2.3281 3.0469-3.0156 1.1875-0.6875 2.4922-1.0312 3.9219-1.0312 2.4375 0 4.2969 0.75781 5.5781 2.2656 1.2812 1.5 1.9219 3.6875 1.9219 6.5625v12.953h-6.8438v-11.094c0.007813-0.16406 0.019531-0.33594 0.03125-0.51562 0.007813-0.17578 0.015625-0.42578 0.015625-0.75 0-1.5078-0.22656-2.6016-0.67188-3.2812-0.44922-0.67578-1.1641-1.0156-2.1406-1.0156-1.293 0-2.293 0.53125-3 1.5938-0.69922 1.0625-1.0625 2.6055-1.0938 4.625v10.438h-6.8281v-11.094c0-2.3516-0.20312-3.8672-0.60938-4.5469-0.40625-0.67578-1.1328-1.0156-2.1719-1.0156-1.3047 0-2.3086 0.53906-3.0156 1.6094-0.71094 1.0742-1.0625 2.6016-1.0625 4.5781v10.469h-6.8281v-21.266h6.8281v3.1094c0.83203-1.1953 1.7891-2.0977 2.875-2.7031 1.082-0.61328 2.2734-0.92188 3.5781-0.92188 1.4688 0 2.7656 0.35547 3.8906 1.0625 1.1328 0.71094 1.9922 1.7031 2.5781 2.9844z"/>
  </symbol>
  <symbol id="u" overflow="visible">
   <path d="m3.5625-28.344h7.3125v28.344h-7.3125z"/>
  </symbol>
  <symbol id="t" overflow="visible">
   <path d="m19.875-20.609v5.1719c-1.4492-0.60156-2.8516-1.0547-4.2031-1.3594-1.3555-0.3125-2.6367-0.46875-3.8438-0.46875-1.293 0-2.25 0.16406-2.875 0.48438-0.625 0.32422-0.9375 0.82422-0.9375 1.5 0 0.54297 0.23438 0.96094 0.70312 1.25 0.47656 0.29297 1.332 0.50781 2.5625 0.64062l1.1875 0.17188c3.4883 0.44922 5.832 1.1797 7.0312 2.1875 1.207 1.0117 1.8125 2.6016 1.8125 4.7656 0 2.2617-0.83984 3.9648-2.5156 5.1094-1.668 1.1367-4.1641 1.7031-7.4844 1.7031-1.4062 0-2.8594-0.10938-4.3594-0.32812s-3.043-0.55078-4.625-1v-5.1562c1.3633 0.65625 2.7539 1.1523 4.1719 1.4844 1.4258 0.32422 2.875 0.48438 4.3438 0.48438 1.332 0 2.332-0.17969 3-0.54688 0.66406-0.36328 1-0.91016 1-1.6406 0-0.60156-0.23047-1.0508-0.6875-1.3438-0.46094-0.30078-1.3828-0.53516-2.7656-0.70312l-1.1875-0.15625c-3.0312-0.375-5.1562-1.0703-6.375-2.0938-1.2109-1.0312-1.8125-2.5938-1.8125-4.6875 0-2.25 0.76953-3.9141 2.3125-5 1.5391-1.0938 3.9102-1.6406 7.1094-1.6406 1.25 0 2.5625 0.09375 3.9375 0.28125 1.3828 0.1875 2.8828 0.48438 4.5 0.89062z"/>
  </symbol>
  <symbol id="f" overflow="visible">
   <path d="m24.656-12.953v12.953h-6.8438v-9.875c0-1.8633-0.042969-3.1406-0.125-3.8281-0.085938-0.69531-0.22656-1.2109-0.42188-1.5469-0.27344-0.4375-0.63672-0.78125-1.0938-1.0312-0.44922-0.25-0.96484-0.375-1.5469-0.375-1.418 0-2.5312 0.54688-3.3438 1.6406s-1.2188 2.6094-1.2188 4.5469v10.469h-6.7969v-29.547h6.7969v11.391c1.0312-1.2383 2.1172-2.1484 3.2656-2.7344 1.1562-0.59375 2.4258-0.89062 3.8125-0.89062 2.457 0 4.3203 0.75781 5.5938 2.2656 1.2812 1.5 1.9219 3.6875 1.9219 6.5625z"/>
  </symbol>
  <symbol id="s" overflow="visible">
   <path d="m13.25-16.844c-1.4375 0-2.543 0.53125-3.3125 1.5938-0.76172 1.0625-1.1406 2.6094-1.1406 4.6406 0 2.0234 0.37891 3.5625 1.1406 4.625 0.76953 1.0625 1.875 1.5938 3.3125 1.5938 1.457 0 2.5664-0.53125 3.3281-1.5938 0.76953-1.0625 1.1562-2.6016 1.1562-4.625 0-2.0312-0.38672-3.5781-1.1562-4.6406-0.76172-1.0625-1.8711-1.5938-3.3281-1.5938zm4.4844 13.766c-0.9375 1.25-1.9688 2.168-3.0938 2.75s-2.4297 0.875-3.9062 0.875c-2.625 0-4.7812-1.0391-6.4688-3.125-1.6797-2.082-2.5156-4.7578-2.5156-8.0312 0-3.2812 0.83594-5.957 2.5156-8.0312 1.6875-2.0703 3.8438-3.1094 6.4688-3.1094 1.4766 0 2.7812 0.29297 3.9062 0.875 1.125 0.58594 2.1562 1.5078 3.0938 2.7656v-3.1562h6.8438v29.359h-6.8438z"/>
  </symbol>
  <symbol id="r" overflow="visible">
   <path d="m17.266-29.547v4.4688h-3.7656c-0.96094 0-1.6328 0.17188-2.0156 0.51562-0.375 0.34375-0.5625 0.94922-0.5625 1.8125v1.4844h5.8125v4.8594h-5.8125v16.406h-6.7969v-16.406h-3.3906v-4.8594h3.3906v-1.4844c0-2.3125 0.64453-4.0195 1.9375-5.125 1.2891-1.1133 3.2891-1.6719 6-1.6719z"/>
  </symbol>
  <symbol id="e" overflow="visible">
   <path d="m13.391-16.922c-1.5117 0-2.6641 0.54297-3.4531 1.625-0.79297 1.0859-1.1875 2.6484-1.1875 4.6875 0 2.0312 0.39453 3.5898 1.1875 4.6719 0.78906 1.0859 1.9414 1.625 3.4531 1.625 1.4766 0 2.6094-0.53906 3.3906-1.625 0.78906-1.082 1.1875-2.6406 1.1875-4.6719 0-2.0391-0.39844-3.6016-1.1875-4.6875-0.78125-1.082-1.9141-1.625-3.3906-1.625zm0-4.8594c3.6562 0 6.5078 0.99219 8.5625 2.9688 2.0625 1.9688 3.0938 4.7031 3.0938 8.2031 0 3.4922-1.0312 6.2266-3.0938 8.2031-2.0547 1.9688-4.9062 2.9531-8.5625 2.9531-3.6797 0-6.5547-0.98438-8.625-2.9531-2.0625-1.9766-3.0938-4.7109-3.0938-8.2031 0-3.5 1.0312-6.2344 3.0938-8.2031 2.0703-1.9766 4.9453-2.9688 8.625-2.9688z"/>
  </symbol>
  <symbol id="q" overflow="visible">
   <path d="m3.5625-28.344h8.1719l10.312 19.438v-19.438h6.9375v28.344h-8.1719l-10.312-19.453v19.453h-6.9375z"/>
  </symbol>
  <symbol id="p" overflow="visible">
   <path d="m3.0312-8.2812v-12.984h6.8438v2.125c0 1.1562-0.007812 2.6055-0.015625 4.3438-0.011719 1.7422-0.015625 2.9023-0.015625 3.4844 0 1.7109 0.039062 2.9375 0.125 3.6875 0.09375 0.75 0.24219 1.2969 0.45312 1.6406 0.28125 0.44922 0.64453 0.79297 1.0938 1.0312 0.44531 0.24219 0.96094 0.35938 1.5469 0.35938 1.4141 0 2.5312-0.53906 3.3438-1.625 0.8125-1.0938 1.2188-2.6094 1.2188-4.5469v-10.5h6.7969v21.266h-6.7969v-3.0781c-1.0312 1.2422-2.1211 2.1562-3.2656 2.75-1.1484 0.58203-2.4062 0.875-3.7812 0.875-2.4609 0-4.3359-0.75-5.625-2.25-1.2812-1.5078-1.9219-3.7031-1.9219-6.5781z"/>
  </symbol>
  <symbol id="o" overflow="visible">
   <path d="m24.656-12.953v12.953h-6.8438v-9.9062c0-1.8438-0.042969-3.1094-0.125-3.7969-0.085938-0.69531-0.22656-1.2109-0.42188-1.5469-0.27344-0.4375-0.63672-0.78125-1.0938-1.0312-0.44922-0.25-0.96484-0.375-1.5469-0.375-1.418 0-2.5312 0.54688-3.3438 1.6406s-1.2188 2.6094-1.2188 4.5469v10.469h-6.7969v-21.266h6.7969v3.1094c1.0312-1.2383 2.1172-2.1484 3.2656-2.7344 1.1562-0.59375 2.4258-0.89062 3.8125-0.89062 2.457 0 4.3203 0.75781 5.5938 2.2656 1.2812 1.5 1.9219 3.6875 1.9219 6.5625z"/>
  </symbol>
  <symbol id="n" overflow="visible">
   <path d="m3.5625-28.344h12.141c3.6016 0 6.3672 0.80469 8.2969 2.4062 1.9375 1.5938 2.9062 3.8711 2.9062 6.8281 0 2.9805-0.96875 5.2734-2.9062 6.875-1.9297 1.5938-4.6953 2.3906-8.2969 2.3906h-4.8281v9.8438h-7.3125zm7.3125 5.2969v7.9062h4.0469c1.4141 0 2.5078-0.34375 3.2812-1.0312 0.78125-0.6875 1.1719-1.6641 1.1719-2.9375 0-1.2578-0.39062-2.2266-1.1719-2.9062-0.77344-0.6875-1.8672-1.0312-3.2812-1.0312z"/>
  </symbol>
  <symbol id="m" overflow="visible">
   <path d="m3.2656-21.266h6.7969v20.891c0 2.8438-0.68359 5.0156-2.0469 6.5156-1.3672 1.5-3.3516 2.25-5.9531 2.25h-3.3594v-4.4531h1.1875c1.2891 0 2.1758-0.29297 2.6562-0.875 0.47656-0.58594 0.71875-1.7305 0.71875-3.4375zm0-8.2812h6.7969v5.5469h-6.7969z"/>
  </symbol>
  <symbol id="l" overflow="visible">
   <path d="m20.453-20.609v5.5469c-0.92969-0.63281-1.8555-1.1016-2.7812-1.4062-0.92969-0.30078-1.8906-0.45312-2.8906-0.45312-1.9062 0-3.3906 0.55859-4.4531 1.6719-1.0547 1.1055-1.5781 2.6523-1.5781 4.6406 0 1.9805 0.52344 3.5273 1.5781 4.6406 1.0625 1.1055 2.5469 1.6562 4.4531 1.6562 1.0625 0 2.0664-0.15625 3.0156-0.46875 0.95703-0.32031 1.8438-0.78906 2.6562-1.4062v5.5625c-1.0625 0.39844-2.1406 0.6875-3.2344 0.875-1.0938 0.19531-2.1953 0.29688-3.2969 0.29688-3.8359 0-6.8359-0.98438-9-2.9531-2.168-1.9688-3.25-4.7031-3.25-8.2031 0-3.5078 1.082-6.25 3.25-8.2188 2.1641-1.9688 5.1641-2.9531 9-2.9531 1.1133 0 2.2109 0.10156 3.2969 0.29688 1.082 0.19922 2.1602 0.49219 3.2344 0.875z"/>
  </symbol>
 </defs>
 <g>
  <path d="m451.81 77.543c32.434 5.1328 36.477 32.434 36.633 33.523 0.39063 2.8789 2.7227 5.0547 5.6016 5.1328h0.15625c2.8008 0 5.2109-2.0234 5.7539-4.7461 0.3125-1.4766 7.0781-36.32 35.156-33.68 3.1875 0.3125 6.0664-2.0234 6.3789-5.2891s-2.0234-6.0664-5.2891-6.3789c-21.934-2.1016-35.234 12.289-42.234 26.602-6.5352-11.434-19.055-23.332-40.367-26.754-3.1094-0.54297-6.1445 1.6328-6.6875 4.8203-0.46875 3.2695 1.707 6.2266 4.8984 6.7695z"/>
  <path d="m138.37 259c24.109 3.8125 27.145 24.035 27.223 24.891 0.39062 2.8789 2.7227 4.9766 5.6016 5.1328h0.15625c2.8008 0 5.2109-2.0234 5.7539-4.7461 0.23438-1.0898 5.2109-26.988 25.82-25.043 3.1094 0.3125 6.0664-2.0234 6.3789-5.2891 0.3125-3.2656-2.0234-6.0664-5.2891-6.3789-16.566-1.5547-27.066 8.5547-32.898 19.211-5.5234-8.4766-15.246-16.801-30.957-19.367-3.1875-0.46484-6.1445 1.6328-6.6875 4.8203-0.54688 3.1914 1.7109 6.3047 4.8984 6.7695z"/>
  <path d="m583.72 161.54-17.188-14.621c-2.4883-2.1016-6.1445-1.7891-8.2461 0.62109l-76.766 90.145-53.82 63.312-15.246-12.91c-2.4883-2.1016-6.1445-1.7891-8.2461 0.62109l-18.82 22.09-12.367-17.965-4.668-27.223c11.977-14.543 20.922-33.602 25.277-55.223 0.93359 0.23438 1.8672 0.46484 2.957 0.46484 0.69922 0 1.3984-0.078125 2.1016-0.15625 5.7539-1.0117 10.5-5.9883 14.156-14.855 3.3438-8.168 4.043-14.855 2.332-19.91 27.223-3.7344 48.922-9.957 48.922-20.145 0-4.8203 0-16.102-70.078-22.555l-19.133-86.566c-1.168-5.2891-4.8203-9.7227-9.8008-11.82-4.9766-2.1797-10.734-1.7109-15.32 1.0117l-38.188 23.023-41.145-23.488c-4.668-2.7227-10.188-2.957-15.168-0.77734-4.9766 2.1797-8.4766 6.457-9.6445 11.82l-19.293 87.105c-66.891 6.457-67.121 17.422-67.121 22.246 0 10.188 21.699 16.332 48.922 20.145-1.7109 5.1328-0.93359 11.746 2.332 19.91 3.5781 8.7891 8.3203 13.844 14.078 14.855 0.69922 0.15625 1.4766 0.15625 2.1016 0.15625 1.0898 0 2.0234-0.23438 2.957-0.46484 4.1211 20.223 12.133 38.266 23.023 52.422-0.078125 0.15625-0.15625 0.3125-0.15625 0.46484l-4.8203 28.234-22.168 37.18-70.391 22.09c-20.609 5.4453-35.543 24.035-36.32 45.344l-4.5156 124.75c-0.078125 1.5547 0.54297 3.1094 1.6328 4.2773 1.0898 1.168 2.6445 1.7891 4.1992 1.7891h52.965 0.15625 82.523 0.15625 2.8789 0.23438 0.23438 51.801 0.15625 0.15625 53.121 0.15625 82.523 0.15625 52.965c1.5547 0 3.1094-0.62109 4.1992-1.7891s1.7109-2.6445 1.6328-4.2773l-4.5117-124.83c-0.77734-21.234-15.711-39.898-36.09-45.266l-4.8984-1.5547c14.777-17.891 28.234-34.223 38.734-47.055l12.91-15.633c7.543-9.1797 6.8438-22.477-1.0898-30.879l73.188-85.945c1.0117-1.168 1.4766-2.7227 1.3984-4.2773-0.15234-1.4805-0.85156-2.8828-2.0195-3.8945zm-157.58 189.16 5.7539 2.7227c-9.8789 19.445-48.688 88.434-123.82 136.04-15.945 10.109-32.82 18.82-50.168 25.82h-31.578c10.734-3.8906 21.312-8.2461 31.656-13.379 0.078125-0.078126 0.23438-0.078126 0.3125-0.15625 18.977-9.332 38.035-21.234 56.465-35.312 59.109-45.344 93.488-99.789 104.07-118.07zm-176.32 109.59h-70.855v-17.891h70.855zm-70.777 11.668h70.855v20.844c-21.391 10.266-43.633 17.891-66.344 22.477h-4.4336v-43.32zm126.31 43.32h-19.211c6.5352-3.2656 12.91-6.7656 19.211-10.5zm11.668-17.812c15.398-9.957 29.398-20.688 41.766-31.734v49.465h-41.766zm53.434 17.812v-43.32h70.855v43.32zm70.855-54.988h-70.855v-5.2891c4.3555-4.1992 8.4766-8.3984 12.445-12.602h58.41zm-124.29-10.578v-82.523l7.2344-15.012 25.277 40.523c1.0117 1.6328 2.8008 2.6445 4.7461 2.7227h0.23438c1.8672 0 3.5781-0.85547 4.668-2.332l38.035-51.41 1.7109 0.54297c0.23437 0.3125 0.39062 0.62109 0.62109 0.85547 0.54297 0.46484 1.2461 0.85547 1.9453 1.0898 0.23438 0.078125 0.46484 0.078125 0.69922 0.15625 0.39063 0.078125 0.77734 0.23438 1.168 0.23438 0.078125 0 0.15625-0.078125 0.23438-0.078125 0.46484 0 0.93359-0.15625 1.3984-0.3125l2.4883 0.77734c-10.352 17.031-40.84 63.934-90.461 104.77zm49.621-145.52 12.523 18.121c0.3125 1.0117 0.77734 2.0234 1.7109 2.7227 0.078125 0.078125 0.23438 0.078125 0.3125 0.15625l6.5352 9.5664-32.82 44.41-23.879-38.344zm42.699-3.5 10.734 9.1797-17.965 21.156-3.6562-1.168-6.2227-9.1016zm-5.5977-121.8c0.39062 0.46484 1.9453 3.3438-1.7891 12.602-2.332 5.7539-4.5117 7.543-5.2891 7.6992-0.3125 0.078125-0.85547-0.23438-1.168-0.54297 0.69922-6.0664 1.168-12.211 1.168-18.512 0-0.69922 0-1.3984-0.078125-2.1016 1.168-0.078125 2.4102-0.23438 3.5781-0.39062 1.0859 0.078125 2.875 0.3125 3.5781 1.2461zm-162.95-56.781c11.277 1.8672 38.266 5.7539 71.711 5.7539 20.609 0 43.711-1.5547 67.043-5.9102l2.2539 10.344c-15.477 4.3555-68.055 15.945-143.19-0.62109zm16.176-73.266c0.39063-1.6328 1.4766-2.957 2.957-3.6562 1.4766-0.69922 3.2656-0.62109 4.668 0.23438l44.102 25.199c1.7891 1.0898 4.043 1.0117 5.9102-0.078125l41.145-24.734c1.3984-0.85547 3.1875-1.0117 4.7461-0.3125 1.5547 0.69922 2.6445 2.0234 3.0352 3.6562l13.535 61.445c-58.023 10.578-115.73 2.957-133.78 0.078125zm-31.887 96.523c0.77734 1.5547 2.1016 2.8008 3.8906 3.1875 3.1094 0.69922 6.2227-1.3203 6.9219-4.4336l0.23438-1.0117c30.41 6.6875 57.168 9.1016 79.488 9.1016 34.223 0 57.945-5.3672 68.68-8.3984l0.078124 0.39062c0.62109 2.7227 3.0352 4.5898 5.6797 4.5898 0.39062 0 0.85547-0.078125 1.2461-0.15625 1.9453-0.39062 3.3438-1.7891 4.043-3.5 34.223 3.2656 50.012 7.8555 55.379 10.734-11.355 6.3008-62.766 14.234-139.22 14.234-76.457 0-127.79-7.9336-139.22-14.234 5.3594-2.8047 20.449-7.2383 52.805-10.504zm1.4766 53.82s-2.332-0.46484-5.2891-7.6992c-3.7344-9.2539-2.1797-12.133-1.7891-12.602 0.69922-0.93359 2.4883-1.168 3.5781-1.168 1.168 0.15625 2.332 0.23438 3.5781 0.39062 0 0.69922-0.078125 1.3984-0.078125 2.1016 0 6.3008 0.46484 12.445 1.2461 18.512-0.3125 0.23438-0.77734 0.54297-1.2461 0.46484zm11.668-20.145c31.109 2.4102 62.145 2.6445 73.344 2.6445s42.234-0.23438 73.344-2.6445v1.0898c0 32.121-10.5 60.898-26.91 79.879l-0.23438 0.23438c-12.602 14.465-28.699 23.18-46.277 23.18-17.035 0-32.59-8.2461-45.109-22.012-0.078125-0.078124-0.15625-0.15625-0.15625-0.23437-17.109-18.898-28.078-48.223-28.078-81.121 0.078125-0.23828 0.078125-0.625 0.078125-1.0156zm73.344 116.12c17.188 0 33.289-7 46.668-18.977l2.957 16.957-41.766 42.855c-0.39062 0.39062-0.62109 0.77734-0.85547 1.2461-0.078125 0.078125-0.15625 0.15625-0.23438 0.3125l-7.2344 14.934-7.2344-14.934c-0.46484-0.93359-1.168-1.5547-1.9453-2.1797l-42.699-43.012 3.1875-18.512c13.922 13.375 30.879 21.309 49.156 21.309zm-57.555 8.3984 37.102 37.332-23.488 37.957-31.344-45.5zm-123.59 92.867c0.54297-16.18 11.898-30.332 27.844-34.535l68.602-21.465 36.09 52.422c1.0898 1.5547 2.8789 2.4883 4.8203 2.4883h0.15625c1.9453-0.078125 3.8125-1.0898 4.8203-2.8008l25.199-40.68 7.3906 15.246v91.781c-14.391 10.812-29.09 20.145-43.867 28v-50.32c0-3.1875-2.6445-5.832-5.832-5.832l-82.445-0.003906c-3.1875 0-5.832 2.6445-5.832 5.832v78.711h-41.223zm359.49 0 4.3555 118.77h-41.223v-78.711c0-3.1875-2.6445-5.832-5.832-5.832h-53.746c29.246-33.832 45.109-64.09 50.168-74.512l3.1094 1.0117c1.0898 0.85547 2.332 1.2461 3.5781 1.2461 0.078125 0 0.15625-0.078125 0.23438-0.078125l11.668 3.6562c15.711 4.1211 27.066 18.273 27.688 34.453zm13.301-117.29-12.91 15.711c-11.277 13.688-25.82 31.344-41.766 50.711l-18.199-5.6797-11.043-5.2109c-1.6328-0.77734-3.5-0.62109-5.0547 0.15625h-0.078125l72.41-85.012 2.8008 2.332 12.445 10.656c4.8945 4.0469 5.5156 11.281 1.3945 16.336zm-0.77734-31.266-8.3203-7.0781 69.223-81.277 8.3203 7.0781z"/>
  <path d="m523.21 481.45c-3.1875 0.15625-5.6797 2.8789-5.5234 6.0664l0.62109 13.379c0.15625 3.1094 2.7227 5.5234 5.832 5.5234h0.3125c3.1875-0.15625 5.6797-2.8789 5.5234-6.0664l-0.62109-13.379c-0.15625-3.1914-2.8789-5.6016-6.1445-5.5234z"/>
  <path d="m522.51 471.96h0.3125c3.1875-0.15625 5.6797-2.8789 5.5234-6.1445l-3.6562-76.535c-0.15625-3.1875-2.8008-5.6016-6.1445-5.5234-3.1875 0.15625-5.6797 2.8789-5.5234 6.1445l3.6562 76.535c0.15234 3.0312 2.7188 5.5234 5.832 5.5234z"/>
  <use x="70" y="676.667969" xlink:href="#w"/>
  <use x="98.539063" y="676.667969" xlink:href="#d"/>
  <use x="117.71875" y="676.667969" xlink:href="#a"/>
  <use x="144.09375" y="676.667969" xlink:href="#c"/>
  <use x="170.335938" y="676.667969" xlink:href="#b"/>
  <use x="188.925781" y="676.667969" xlink:href="#a"/>
  <use x="215.300781" y="676.667969" xlink:href="#k"/>
  <use x="256.679688" y="676.667969" xlink:href="#j"/>
  <use x="284.515625" y="676.667969" xlink:href="#i"/>
  <use x="323.40625" y="676.667969" xlink:href="#h"/>
  <use x="353.5" y="676.667969" xlink:href="#v"/>
  <use x="376.136719" y="676.667969" xlink:href="#c"/>
  <use x="402.378906" y="676.667969" xlink:href="#g"/>
  <use x="456.4375" y="676.667969" xlink:href="#u"/>
  <use x="470.910156" y="676.667969" xlink:href="#t"/>
  <use x="494.054688" y="676.667969" xlink:href="#f"/>
  <use x="521.742188" y="676.667969" xlink:href="#c"/>
  <use x="547.984375" y="676.667969" xlink:href="#s"/>
  <use x="70" y="715.554688" xlink:href="#r"/>
  <use x="86.917969" y="715.554688" xlink:href="#d"/>
  <use x="106.097656" y="715.554688" xlink:href="#e"/>
  <use x="132.816406" y="715.554688" xlink:href="#g"/>
  <use x="186.875" y="715.554688" xlink:href="#b"/>
  <use x="205.464844" y="715.554688" xlink:href="#f"/>
  <use x="233.152344" y="715.554688" xlink:href="#a"/>
  <use x="273.066406" y="715.554688" xlink:href="#q"/>
  <use x="305.613281" y="715.554688" xlink:href="#e"/>
  <use x="332.328125" y="715.554688" xlink:href="#p"/>
  <use x="360.015625" y="715.554688" xlink:href="#o"/>
  <use x="401.238281" y="715.554688" xlink:href="#n"/>
  <use x="429.742188" y="715.554688" xlink:href="#d"/>
  <use x="448.917969" y="715.554688" xlink:href="#e"/>
  <use x="475.636719" y="715.554688" xlink:href="#m"/>
  <use x="488.96875" y="715.554688" xlink:href="#a"/>
  <use x="515.34375" y="715.554688" xlink:href="#l"/>
  <use x="538.394531" y="715.554688" xlink:href="#b"/>
 </g>
</svg>
